Griffith_Gothic-Condensed_Thin.ufo
<glyph name="quotesingle" format="1">
  <advance width="140"/>
  <unicode hex="0027"/>
  <outline>
    <contour>
      <point x="91" y="720" type="line"/>
      <point x="78" y="537" type="line"/>
      <point x="62" y="537" type="line"/>
      <point x="49" y="720" type="line"/>
    </contour>
  </outline>
</glyph>
<glyph name="parenright" format="1">
  <advance width="232"/>
  <unicode hex="0029"/>
  <outline>
    <contour>
      <point x="183" y="320" type="curve" smooth="yes"/>
      <point x="183" y="135"/>
      <point x="122" y="0"/>
      <point x="58" y="-95" type="curve"/>
      <point x="28" y="-95" type="line"/>
      <point x="97" y="15"/>
      <point x="145" y="147"/>
      <point x="145" y="320" type="curve" smooth="yes"/>
      <point x="145" y="493"/>
      <point x="97" y="625"/>
      <point x="28" y="735" type="curve"/>
      <point x="58" y="735" type="line"/>
      <point x="122" y="640"/>
      <point x="183" y="505"/>
    </contour>
  </outline>
</glyph>
<glyph name="asterisk" format="1">
  <advance width="330"/>
  <unicode hex="002A"/>
  <outline>
    <contour>
      <point x="297" y="614" type="line"/>
      <point x="179" y="586" type="line"/>
      <point x="261" y="493" type="line"/>
      <point x="231" y="471" type="line"/>
      <point x="165" y="578" type="line"/>
      <point x="99" y="471" type="line"/>
      <point x="69" y="493" type="line"/>
      <point x="151" y="586" type="line"/>
      <point x="33" y="614" type="line"/>
      <point x="44" y="648" type="line"/>
      <point x="157" y="598" type="line"/>
      <point x="147" y="720" type="line"/>
      <point x="183" y="720" type="line"/>
      <point x="173" y="598" type="line"/>
      <point x="286" y="648" type="line"/>
    </contour>
  </outline>
</glyph>
<glyph name="plus" format="1">
  <advance width="470"/>
  <unicode hex="002B"/>
  <outline>
    <contour>
      <point x="432" y="339" type="line"/>
      <point x="251" y="339" type="line"/>
      <point x="251" y="158" type="line"/>
      <point x="219" y="158" type="line"/>
      <point x="219" y="339" type="line"/>
      <point x="38" y="339" type="line"/>
      <point x="38" y="371" type="line"/>
      <point x="219" y="371" type="line"/>
      <point x="219" y="552" type="line"/>
      <point x="251" y="552" type="line"/>
      <point x="251" y="371" type="line"/>
      <point x="432" y="371" type="line"/>
    </contour>
  </outline>
</glyph>
<glyph name="comma" format="1">
  <advance width="140"/>
  <unicode hex="002C"/>
  <outline>
    <contour>
      <point x="100" y="75" type="line"/>
      <point x="42" y="-108" type="line"/>
      <point x="25" y="-108" type="line"/>
      <point x="58" y="75" type="line"/>
    </contour>
  </outline>
</glyph>
<glyph name="period" format="1">
  <advance width="130"/>
  <unicode hex="002E"/>
  <outline>
    <contour>
      <point x="102" y="25" type="curve" smooth="yes"/>
      <point x="102" y="6"/>
      <point x="89" y="-7"/>
      <point x="70" y="-7" type="curve" smooth="yes"/>
      <point x="51" y="-7"/>
      <point x="38" y="6"/>
      <point x="38" y="25" type="curve" smooth="yes"/>
      <point x="38" y="44"/>
      <point x="51" y="57"/>
      <point x="70" y="57" type="curve" smooth="yes"/>
      <point x="89" y="57"/>
      <point x="102" y="44"/>
    </contour>
  </outline>
</glyph>
<glyph name="slash" format="1">
  <advance width="283"/>
  <unicode hex="002F"/>
  <outline>
    <contour>
      <point x="269" y="735" type="line"/>
      <point x="25" y="-95" type="line"/>
      <point x="-8" y="-95" type="line"/>
      <point x="236" y="735" type="line"/>
    </contour>
  </outline>
</glyph>
<glyph name="one" format="1">
  <advance width="345"/>
  <unicode hex="0031"/>
  <outline>
    <contour>
      <point x="325" y="0" type="line"/>
      <point x="43" y="0" type="line"/>
      <point x="43" y="30" type="line"/>
      <point x="168" y="30" type="line"/>
      <point x="168" y="690" type="line"/>
      <point x="34" y="690" type="line"/>
      <point x="34" y="720" type="line"/>
      <point x="204" y="720" type="line"/>
      <point x="204" y="30" type="line"/>
      <point x="325" y="30" type="line"/>
    </contour>
  </outline>
</glyph>
<glyph name="semicolon" format="1">
  <advance width="160"/>
  <unicode hex="003B"/>
  <outline>
    <contour>
      <point x="112" y="484" type="curve" smooth="yes"/>
      <point x="112" y="465"/>
      <point x="99" y="452"/>
      <point x="80" y="452" type="curve" smooth="yes"/>
      <point x="61" y="452"/>
      <point x="48" y="465"/>
      <point x="48" y="484" type="curve" smooth="yes"/>
      <point x="48" y="503"/>
      <point x="61" y="516"/>
      <point x="80" y="516" type="curve" smooth="yes"/>
      <point x="99" y="516"/>
      <point x="112" y="503"/>
    </contour>
    <contour>
      <point x="100" y="75" type="line"/>
      <point x="42" y="-108" type="line"/>
      <point x="25" y="-108" type="line"/>
      <point x="58" y="75" type="line"/>
    </contour>
  </outline>
</glyph>
<glyph name="equal" format="1">
  <advance width="470"/>
  <unicode hex="003D"/>
  <outline>
    <contour>
      <point x="422" y="430" type="line"/>
      <point x="48" y="430" type="line"/>
      <point x="48" y="463" type="line"/>
      <point x="422" y="463" type="line"/>
    </contour>
    <contour>
      <point x="422" y="248" type="line"/>
      <point x="48" y="248" type="line"/>
      <point x="48" y="281" type="line"/>
      <point x="422" y="281" type="line"/>
    </contour>
  </outline>
</glyph>
<glyph name="greater" format="1">
  <advance width="470"/>
  <unicode hex="003E"/>
  <outline>
    <contour>
      <point x="430" y="340" type="line"/>
      <point x="46" y="163" type="line"/>
      <point x="46" y="196" type="line"/>
      <point x="396" y="356" type="line"/>
      <point x="46" y="516" type="line"/>
      <point x="46" y="549" type="line"/>
      <point x="430" y="371" type="line"/>
    </contour>
  </outline>
</glyph>
<glyph name="question" format="1">
  <advance width="336"/>
  <unicode hex="003F"/>
  <outline>
    <contour>
      <point x="297" y="576" type="curve" smooth="yes"/>
      <point x="297" y="497"/>
      <point x="275" y="461"/>
      <point x="220" y="386" type="curve" smooth="yes"/>
      <point x="177" y="328"/>
      <point x="166" y="293"/>
      <point x="166" y="178" type="curve"/>
      <point x="144" y="178" type="line"/>
      <point x="143" y="307"/>
      <point x="151" y="347"/>
      <point x="202" y="415" type="curve" smooth="yes"/>
      <point x="244" y="470"/>
      <point x="261" y="514"/>
      <point x="261" y="572" type="curve" smooth="yes"/>
      <point x="261" y="646"/>
      <point x="224" y="699"/>
      <point x="164" y="699" type="curve" smooth="yes"/>
      <point x="107" y="699"/>
      <point x="73" y="658"/>
      <point x="51" y="584" type="curve"/>
      <point x="22" y="596" type="line"/>
      <point x="44" y="682"/>
      <point x="92" y="732"/>
      <point x="167" y="732" type="curve" smooth="yes"/>
      <point x="246" y="732"/>
      <point x="297" y="668"/>
    </contour>
    <contour>
      <point x="187" y="25" type="curve" smooth="yes"/>
      <point x="187" y="6"/>
      <point x="174" y="-7"/>
      <point x="155" y="-7" type="curve" smooth="yes"/>
      <point x="136" y="-7"/>
      <point x="123" y="6"/>
      <point x="123" y="25" type="curve" smooth="yes"/>
      <point x="123" y="44"/>
      <point x="136" y="57"/>
      <point x="155" y="57" type="curve" smooth="yes"/>
      <point x="174" y="57"/>
      <point x="187" y="44"/>
    </contour>
  </outline>
</glyph>
<glyph name="C" format="1">
  <advance width="445"/>
  <unicode hex="0043"/>
  <outline>
    <contour>
      <point x="413" y="200" type="line"/>
      <point x="388" y="74"/>
      <point x="339" y="-12"/>
      <point x="234" y="-12" type="curve" smooth="yes"/>
      <point x="114" y="-12"/>
      <point x="45" y="121"/>
      <point x="45" y="321" type="curve" smooth="yes"/>
      <point x="45" y="397" type="line" smooth="yes"/>
      <point x="45" y="598"/>
      <point x="115" y="732"/>
      <point x="233" y="732" type="curve" smooth="yes"/>
      <point x="329" y="732"/>
      <point x="383" y="658"/>
      <point x="408" y="537" type="curve"/>
      <point x="374" y="524" type="line"/>
      <point x="351" y="634"/>
      <point x="311" y="702"/>
      <point x="233" y="702" type="curve" smooth="yes"/>
      <point x="134" y="702"/>
      <point x="83" y="572"/>
      <point x="83" y="399" type="curve" smooth="yes"/>
      <point x="83" y="323" type="line" smooth="yes"/>
      <point x="83" y="150"/>
      <point x="135" y="18"/>
      <point x="236" y="18" type="curve" smooth="yes"/>
      <point x="315" y="18"/>
      <point x="354" y="87"/>
      <point x="380" y="210" type="curve"/>
    </contour>
  </outline>
</glyph>
<glyph name="G" format="1">
  <advance width="477"/>
  <unicode hex="0047"/>
  <outline>
    <contour>
      <point x="428" y="0" type="line"/>
      <point x="401" y="0" type="line"/>
      <point x="401" y="230" type="line"/>
      <point x="397" y="230" type="line"/>
      <point x="375" y="77"/>
      <point x="331" y="-12"/>
      <point x="229" y="-12" type="curve" smooth="yes"/>
      <point x="116" y="-12"/>
      <point x="45" y="120"/>
      <point x="45" y="322" type="curve" smooth="yes"/>
      <point x="45" y="397" type="line" smooth="yes"/>
      <point x="45" y="598"/>
      <point x="120" y="732"/>
      <point x="234" y="732" type="curve" smooth="yes"/>
      <point x="332" y="732"/>
      <point x="379" y="662"/>
      <point x="408" y="555" type="curve"/>
      <point x="375" y="540" type="line"/>
      <point x="351" y="635"/>
      <point x="311" y="702"/>
      <point x="234" y="702" type="curve" smooth="yes"/>
      <point x="136" y="702"/>
      <point x="83" y="572"/>
      <point x="83" y="399" type="curve" smooth="yes"/>
      <point x="83" y="324" type="line" smooth="yes"/>
      <point x="83" y="147"/>
      <point x="137" y="18"/>
      <point x="233" y="18" type="curve" smooth="yes"/>
      <point x="325" y="18"/>
      <point x="365" y="122"/>
      <point x="379" y="294" type="curve"/>
      <point x="246" y="294" type="line"/>
      <point x="246" y="324" type="line"/>
      <point x="428" y="324" type="line"/>
    </contour>
  </outline>
</glyph>
<glyph name="H" format="1">
  <advance width="486"/>
  <unicode hex="0048"/>
  <outline>
    <contour>
      <point x="414" y="0" type="line"/>
      <point x="376" y="0" type="line"/>
      <point x="376" y="363" type="line"/>
      <point x="110" y="363" type="line"/>
      <point x="110" y="0" type="line"/>
      <point x="72" y="0" type="line"/>
      <point x="72" y="720" type="line"/>
      <point x="110" y="720" type="line"/>
      <point x="110" y="393" type="line"/>
      <point x="376" y="393" type="line"/>
      <point x="376" y="720" type="line"/>
      <point x="414" y="720" type="line"/>
    </contour>
  </outline>
</glyph>
<glyph name="J" format="1">
  <advance width="374"/>
  <unicode hex="004A"/>
  <outline>
    <contour>
      <point x="304" y="174" type="line" smooth="yes"/>
      <point x="304" y="61"/>
      <point x="254" y="-12"/>
      <point x="164" y="-12" type="curve" smooth="yes"/>
      <point x="77" y="-12"/>
      <point x="24" y="44"/>
      <point x="22" y="160" type="curve"/>
      <point x="56" y="177" type="line"/>
      <point x="59" y="61"/>
      <point x="102" y="20"/>
      <point x="166" y="20" type="curve" smooth="yes"/>
      <point x="227" y="20"/>
      <point x="266" y="69"/>
      <point x="266" y="172" type="curve" smooth="yes"/>
      <point x="266" y="720" type="line"/>
      <point x="304" y="720" type="line"/>
    </contour>
  </outline>
</glyph>
<glyph name="K" format="1">
  <advance width="454"/>
  <unicode hex="004B"/>
  <outline>
    <contour>
      <point x="452" y="0" type="line"/>
      <point x="406" y="0" type="line"/>
      <point x="136" y="389" type="line"/>
      <point x="136" y="391" type="line"/>
      <point x="395" y="720" type="line"/>
      <point x="440" y="720" type="line"/>
      <point x="179" y="391" type="line"/>
    </contour>
    <contour>
      <point x="110" y="0" type="line"/>
      <point x="72" y="0" type="line"/>
      <point x="72" y="720" type="line"/>
      <point x="110" y="720" type="line"/>
    </contour>
  </outline>
</glyph>
<glyph name="L" format="1">
  <advance width="386"/>
  <unicode hex="004C"/>
  <outline>
    <contour>
      <point x="378" y="0" type="line"/>
      <point x="72" y="0" type="line"/>
      <point x="72" y="720" type="line"/>
      <point x="110" y="720" type="line"/>
      <point x="110" y="30" type="line"/>
      <point x="378" y="30" type="line"/>
    </contour>
  </outline>
</glyph>
<glyph name="M" format="1">
  <advance width="637"/>
  <unicode hex="004D"/>
  <outline>
    <contour>
      <point x="565" y="0" type="line"/>
      <point x="528" y="0" type="line"/>
      <point x="528" y="680" type="line"/>
      <point x="522" y="680" type="line"/>
      <point x="343" y="0" type="line"/>
      <point x="294" y="0" type="line"/>
      <point x="112" y="680" type="line"/>
      <point x="106" y="680" type="line"/>
      <point x="106" y="0" type="line"/>
      <point x="72" y="0" type="line"/>
      <point x="72" y="720" type="line"/>
      <point x="139" y="720" type="line"/>
      <point x="317" y="44" type="line"/>
      <point x="323" y="44" type="line"/>
      <point x="499" y="720" type="line"/>
      <point x="565" y="720" type="line"/>
    </contour>
  </outline>
</glyph>
<glyph name="R" format="1">
  <advance width="463"/>
  <unicode hex="0052"/>
  <outline>
    <contour>
      <point x="428" y="0" type="line"/>
      <point x="385" y="0" type="line"/>
      <point x="215" y="330" type="line"/>
      <point x="110" y="330" type="line"/>
      <point x="110" y="0" type="line"/>
      <point x="72" y="0" type="line"/>
      <point x="72" y="720" type="line"/>
      <point x="208" y="720" type="line" smooth="yes"/>
      <point x="339" y="720"/>
      <point x="415" y="655"/>
      <point x="415" y="526" type="curve" smooth="yes"/>
      <point x="415" y="406"/>
      <point x="347" y="345"/>
      <point x="253" y="334" type="curve"/>
    </contour>
    <contour>
      <point x="377" y="524" type="curve" smooth="yes"/>
      <point x="377" y="634"/>
      <point x="321" y="690"/>
      <point x="213" y="690" type="curve" smooth="yes"/>
      <point x="110" y="690" type="line"/>
      <point x="110" y="360" type="line"/>
      <point x="217" y="360" type="line" smooth="yes"/>
      <point x="319" y="360"/>
      <point x="377" y="409"/>
    </contour>
  </outline>
</glyph>
<glyph name="S" format="1">
  <advance width="435"/>
  <unicode hex="0053"/>
  <outline>
    <contour>
      <point x="394" y="176" type="curve" smooth="yes"/>
      <point x="394" y="53"/>
      <point x="314" y="-12"/>
      <point x="226" y="-12" type="curve" smooth="yes"/>
      <point x="121" y="-12"/>
      <point x="64" y="48"/>
      <point x="39" y="165" type="curve"/>
      <point x="71" y="179" type="line"/>
      <point x="95" y="69"/>
      <point x="145" y="18"/>
      <point x="226" y="18" type="curve" smooth="yes"/>
      <point x="299" y="18"/>
      <point x="356" y="76"/>
      <point x="356" y="173" type="curve" smooth="yes"/>
      <point x="356" y="260"/>
      <point x="324" y="311"/>
      <point x="217" y="358" type="curve" smooth="yes"/>
      <point x="103" y="408"/>
      <point x="57" y="463"/>
      <point x="57" y="564" type="curve" smooth="yes"/>
      <point x="57" y="653"/>
      <point x="118" y="732"/>
      <point x="209" y="732" type="curve" smooth="yes"/>
      <point x="294" y="732"/>
      <point x="350" y="682"/>
      <point x="377" y="584" type="curve"/>
      <point x="345" y="570" type="line"/>
      <point x="320" y="655"/>
      <point x="280" y="702"/>
      <point x="209" y="702" type="curve" smooth="yes"/>
      <point x="133" y="702"/>
      <point x="95" y="633"/>
      <point x="95" y="567" type="curve" smooth="yes"/>
      <point x="95" y="484"/>
      <point x="129" y="438"/>
      <point x="231" y="394" type="curve" smooth="yes"/>
      <point x="353" y="341"/>
      <point x="394" y="282"/>
    </contour>
  </outline>
</glyph>
<glyph name="T" format="1">
  <advance width="439"/>
  <unicode hex="0054"/>
  <outline>
    <contour>
      <point x="422" y="690" type="line"/>
      <point x="238" y="690" type="line"/>
      <point x="238" y="0" type="line"/>
      <point x="201" y="0" type="line"/>
      <point x="201" y="690" type="line"/>
      <point x="17" y="690" type="line"/>
      <point x="17" y="720" type="line"/>
      <point x="422" y="720" type="line"/>
    </contour>
  </outline>
</glyph>
<glyph name="U" format="1">
  <advance width="488"/>
  <unicode hex="0055"/>
  <outline>
    <contour>
      <point x="419" y="217" type="line" smooth="yes"/>
      <point x="419" y="55"/>
      <point x="343" y="-12"/>
      <point x="244" y="-12" type="curve" smooth="yes"/>
      <point x="145" y="-12"/>
      <point x="68" y="55"/>
      <point x="68" y="217" type="curve" smooth="yes"/>
      <point x="68" y="720" type="line"/>
      <point x="106" y="720" type="line"/>
      <point x="106" y="217" type="line" smooth="yes"/>
      <point x="106" y="80"/>
      <point x="164" y="18"/>
      <point x="246" y="18" type="curve" smooth="yes"/>
      <point x="328" y="18"/>
      <point x="384" y="77"/>
      <point x="384" y="213" type="curve" smooth="yes"/>
      <point x="384" y="720" type="line"/>
      <point x="419" y="720" type="line"/>
    </contour>
  </outline>
</glyph>
<glyph name="W" format="1">
  <advance width="749"/>
  <unicode hex="0057"/>
  <outline>
    <contour>
      <point x="722" y="720" type="line"/>
      <point x="567" y="-6" type="line"/>
      <point x="518" y="-6" type="line"/>
      <point x="378" y="678" type="line"/>
      <point x="371" y="678" type="line"/>
      <point x="231" y="-6" type="line"/>
      <point x="182" y="-6" type="line"/>
      <point x="27" y="720" type="line"/>
      <point x="66" y="720" type="line"/>
      <point x="204" y="39" type="line"/>
      <point x="210" y="39" type="line"/>
      <point x="346" y="720" type="line"/>
      <point x="404" y="720" type="line"/>
      <point x="541" y="39" type="line"/>
      <point x="547" y="39" type="line"/>
      <point x="685" y="720" type="line"/>
    </contour>
  </outline>
</glyph>
<glyph name="X" format="1">
  <advance width="486"/>
  <unicode hex="0058"/>
  <outline>
    <contour>
      <point x="459" y="0" type="line"/>
      <point x="417" y="0" type="line"/>
      <point x="243" y="341" type="line"/>
      <point x="67" y="0" type="line"/>
      <point x="27" y="0" type="line"/>
      <point x="222" y="371" type="line"/>
      <point x="39" y="720" type="line"/>
      <point x="81" y="720" type="line"/>
      <point x="243" y="402" type="line"/>
      <point x="407" y="720" type="line"/>
      <point x="447" y="720" type="line"/>
      <point x="264" y="372" type="line"/>
    </contour>
  </outline>
</glyph>
<glyph name="Z" format="1">
  <advance width="424"/>
  <unicode hex="005A"/>
  <outline>
    <contour>
      <point x="394" y="0" type="line"/>
      <point x="30" y="0" type="line"/>
      <point x="30" y="25" type="line"/>
      <point x="353" y="690" type="line"/>
      <point x="45" y="690" type="line"/>
      <point x="45" y="720" type="line"/>
      <point x="394" y="720" type="line"/>
      <point x="394" y="695" type="line"/>
      <point x="71" y="30" type="line"/>
      <point x="394" y="30" type="line"/>
    </contour>
  </outline>
</glyph>
<glyph name="bracketleft" format="1">
  <advance width="260"/>
  <unicode hex="005B"/>
  <outline>
    <contour>
      <point x="240" y="-80" type="line"/>
      <point x="67" y="-87" type="line"/>
      <point x="67" y="727" type="line"/>
      <point x="240" y="720" type="line"/>
      <point x="240" y="692" type="line"/>
      <point x="102" y="699" type="line"/>
      <point x="102" y="-59" type="line"/>
      <point x="240" y="-52" type="line"/>
    </contour>
  </outline>
</glyph>
<glyph name="backslash" format="1">
  <advance width="283"/>
  <unicode hex="005C"/>
  <outline>
    <contour>
      <point x="291" y="-95" type="line"/>
      <point x="258" y="-95" type="line"/>
      <point x="14" y="735" type="line"/>
      <point x="47" y="735" type="line"/>
    </contour>
  </outline>
</glyph>
<glyph name="underscore" format="1">
  <advance width="392"/>
  <unicode hex="005F"/>
  <outline>
    <contour>
      <point x="395" y="-81" type="line"/>
      <point x="-3" y="-81" type="line"/>
      <point x="-3" y="-52" type="line"/>
      <point x="395" y="-52" type="line"/>
    </contour>
  </outline>
</glyph>
<glyph name="grave" format="1">
  <advance width="390"/>
  <unicode hex="0060"/>
  <outline>
    <contour>
      <point x="252" y="577" type="line"/>
      <point x="229" y="577" type="line"/>
      <point x="125" y="695" type="line"/>
      <point x="177" y="695" type="line"/>
    </contour>
  </outline>
</glyph>
<glyph name="c" format="1">
  <advance width="338"/>
  <unicode hex="0063"/>
  <outline>
    <contour>
      <point x="310" y="115" type="line"/>
      <point x="290" y="44"/>
      <point x="247" y="-10"/>
      <point x="183" y="-10" type="curve" smooth="yes"/>
      <point x="94" y="-10"/>
      <point x="37" y="87"/>
      <point x="37" y="228" type="curve" smooth="yes"/>
      <point x="37" y="282" type="line" smooth="yes"/>
      <point x="37" y="421"/>
      <point x="95" y="522"/>
      <point x="181" y="522" type="curve" smooth="yes"/>
      <point x="252" y="522"/>
      <point x="288" y="466"/>
      <point x="308" y="394" type="curve"/>
      <point x="278" y="383" type="line"/>
      <point x="259" y="445"/>
      <point x="234" y="493"/>
      <point x="179" y="493" type="curve" smooth="yes"/>
      <point x="114" y="493"/>
      <point x="72" y="403"/>
      <point x="72" y="284" type="curve" smooth="yes"/>
      <point x="72" y="229" type="line" smooth="yes"/>
      <point x="72" y="110"/>
      <point x="115" y="19"/>
      <point x="185" y="19" type="curve" smooth="yes"/>
      <point x="231" y="19"/>
      <point x="265" y="62"/>
      <point x="283" y="127" type="curve"/>
    </contour>
  </outline>
</glyph>
<glyph name="d" format="1">
  <advance width="394"/>
  <unicode hex="0064"/>
  <outline>
    <contour>
      <point x="334" y="11" type="line"/>
      <point x="299" y="-9" type="line"/>
      <point x="299" y="100" type="line"/>
      <point x="294" y="100" type="line"/>
      <point x="264" y="40"/>
      <point x="226" y="-10"/>
      <point x="171" y="-10" type="curve" smooth="yes"/>
      <point x="97" y="-10"/>
      <point x="37" y="81"/>
      <point x="37" y="243" type="curve" smooth="yes"/>
      <point x="37" y="268" type="line" smooth="yes"/>
      <point x="37" y="428"/>
      <point x="102" y="522"/>
      <point x="174" y="522" type="curve" smooth="yes"/>
      <point x="225" y="522"/>
      <point x="266" y="473"/>
      <point x="294" y="416" type="curve"/>
      <point x="299" y="416" type="line"/>
      <point x="299" y="742" type="line"/>
      <point x="334" y="762" type="line"/>
    </contour>
    <contour>
      <point x="304" y="256" type="curve" smooth="yes"/>
      <point x="304" y="375"/>
      <point x="246" y="491"/>
      <point x="176" y="491" type="curve" smooth="yes"/>
      <point x="117" y="491"/>
      <point x="72" y="409"/>
      <point x="72" y="257" type="curve" smooth="yes"/>
      <point x="72" y="96"/>
      <point x="119" y="21"/>
      <point x="179" y="21" type="curve" smooth="yes"/>
      <point x="245" y="21"/>
      <point x="304" y="136"/>
    </contour>
  </outline>
</glyph>
<glyph name="e" format="1">
  <advance width="349"/>
  <unicode hex="0065"/>
  <outline>
    <contour>
      <point x="315" y="252" type="line"/>
      <point x="71" y="252" type="line"/>
      <point x="71" y="229" type="line" smooth="yes"/>
      <point x="71" y="98"/>
      <point x="117" y="20"/>
      <point x="190" y="20" type="curve" smooth="yes"/>
      <point x="231" y="20"/>
      <point x="263" y="41"/>
      <point x="291" y="77" type="curve"/>
      <point x="311" y="57" type="line"/>
      <point x="281" y="18"/>
      <point x="241" y="-10"/>
      <point x="189" y="-10" type="curve" smooth="yes"/>
      <point x="100" y="-10"/>
      <point x="37" y="75"/>
      <point x="37" y="228" type="curve" smooth="yes"/>
      <point x="37" y="282" type="line" smooth="yes"/>
      <point x="37" y="424"/>
      <point x="94" y="522"/>
      <point x="179" y="522" type="curve" smooth="yes"/>
      <point x="263" y="522"/>
      <point x="315" y="415"/>
      <point x="315" y="254" type="curve" smooth="yes"/>
    </contour>
    <contour>
      <point x="280" y="280" type="line"/>
      <point x="277" y="398"/>
      <point x="239" y="495"/>
      <point x="179" y="495" type="curve" smooth="yes"/>
      <point x="110" y="495"/>
      <point x="71" y="403"/>
      <point x="71" y="284" type="curve" smooth="yes"/>
      <point x="71" y="280" type="line"/>
    </contour>
  </outline>
</glyph>
<glyph name="f" format="1">
  <advance width="236"/>
  <unicode hex="0066"/>
  <outline>
    <contour>
      <point x="252" y="711" type="line"/>
      <point x="234" y="723"/>
      <point x="218" y="730"/>
      <point x="192" y="730" type="curve" smooth="yes"/>
      <point x="157" y="730"/>
      <point x="132" y="706"/>
      <point x="132" y="650" type="curve" smooth="yes"/>
      <point x="132" y="507" type="line"/>
      <point x="230" y="507" type="line"/>
      <point x="230" y="479" type="line"/>
      <point x="132" y="479" type="line"/>
      <point x="132" y="0" type="line"/>
      <point x="97" y="0" type="line"/>
      <point x="97" y="479" type="line"/>
      <point x="13" y="479" type="line"/>
      <point x="13" y="507" type="line"/>
      <point x="97" y="507" type="line"/>
      <point x="97" y="649" type="line" smooth="yes"/>
      <point x="97" y="724"/>
      <point x="136" y="759"/>
      <point x="189" y="759" type="curve" smooth="yes"/>
      <point x="220" y="759"/>
      <point x="235" y="755"/>
      <point x="252" y="747" type="curve"/>
    </contour>
  </outline>
</glyph>
<glyph name="l" format="1">
  <advance width="169"/>
  <unicode hex="006C"/>
  <outline>
    <contour>
      <point x="102" y="0" type="line"/>
      <point x="67" y="0" type="line"/>
      <point x="67" y="742" type="line"/>
      <point x="102" y="762" type="line"/>
    </contour>
  </outline>
</glyph>
<glyph name="m" format="1">
  <advance width="586"/>
  <unicode hex="006D"/>
  <outline>
    <contour>
      <point x="529" y="0" type="line"/>
      <point x="494" y="0" type="line"/>
      <point x="494" y="412" type="line" smooth="yes"/>
      <point x="494" y="461"/>
      <point x="478" y="487"/>
      <point x="442" y="487" type="curve" smooth="yes"/>
      <point x="401" y="487"/>
      <point x="354" y="447"/>
      <point x="312" y="362" type="curve"/>
      <point x="312" y="0" type="line"/>
      <point x="277" y="0" type="line"/>
      <point x="277" y="412" type="line" smooth="yes"/>
      <point x="277" y="461"/>
      <point x="261" y="487"/>
      <point x="225" y="487" type="curve" smooth="yes"/>
      <point x="184" y="487"/>
      <point x="137" y="447"/>
      <point x="95" y="362" type="curve"/>
      <point x="95" y="0" type="line"/>
      <point x="60" y="0" type="line"/>
      <point x="60" y="501" type="line"/>
      <point x="95" y="521" type="line"/>
      <point x="95" y="409" type="line"/>
      <point x="98" y="409" type="line"/>
      <point x="138" y="473"/>
      <point x="177" y="517"/>
      <point x="233" y="517" type="curve" smooth="yes"/>
      <point x="289" y="517"/>
      <point x="312" y="473"/>
      <point x="312" y="417" type="curve" smooth="yes"/>
      <point x="312" y="409" type="line"/>
      <point x="315" y="409" type="line"/>
      <point x="355" y="473"/>
      <point x="394" y="517"/>
      <point x="450" y="517" type="curve" smooth="yes"/>
      <point x="506" y="517"/>
      <point x="529" y="473"/>
      <point x="529" y="417" type="curve" smooth="yes"/>
    </contour>
  </outline>
</glyph>
<glyph name="o" format="1">
  <advance width="376"/>
  <unicode hex="006F"/>
  <outline>
    <contour>
      <point x="339" y="238" type="line" smooth="yes"/>
      <point x="339" y="96"/>
      <point x="280" y="-10"/>
      <point x="187" y="-10" type="curve" smooth="yes"/>
      <point x="94" y="-10"/>
      <point x="37" y="96"/>
      <point x="37" y="238" type="curve" smooth="yes"/>
      <point x="37" y="274" type="line" smooth="yes"/>
      <point x="37" y="416"/>
      <point x="96" y="522"/>
      <point x="189" y="522" type="curve" smooth="yes"/>
      <point x="282" y="522"/>
      <point x="339" y="416"/>
      <point x="339" y="274" type="curve" smooth="yes"/>
    </contour>
    <contour>
      <point x="304" y="236" type="curve" smooth="yes"/>
      <point x="304" y="276" type="line" smooth="yes"/>
      <point x="304" y="397"/>
      <point x="257" y="495"/>
      <point x="187" y="495" type="curve" smooth="yes"/>
      <point x="117" y="495"/>
      <point x="72" y="397"/>
      <point x="72" y="276" type="curve" smooth="yes"/>
      <point x="72" y="236" type="line" smooth="yes"/>
      <point x="72" y="115"/>
      <point x="119" y="17"/>
      <point x="189" y="17" type="curve" smooth="yes"/>
      <point x="259" y="17"/>
      <point x="304" y="115"/>
    </contour>
  </outline>
</glyph>
<glyph name="p" format="1">
  <advance width="394"/>
  <unicode hex="0070"/>
  <outline>
    <contour>
      <point x="357" y="244" type="line" smooth="yes"/>
      <point x="357" y="84"/>
      <point x="292" y="-10"/>
      <point x="220" y="-10" type="curve" smooth="yes"/>
      <point x="169" y="-10"/>
      <point x="128" y="39"/>
      <point x="100" y="96" type="curve"/>
      <point x="95" y="96" type="line"/>
      <point x="95" y="-188" type="line"/>
      <point x="60" y="-188" type="line"/>
      <point x="60" y="501" type="line"/>
      <point x="95" y="521" type="line"/>
      <point x="95" y="412" type="line"/>
      <point x="100" y="412" type="line"/>
      <point x="130" y="472"/>
      <point x="168" y="522"/>
      <point x="223" y="522" type="curve" smooth="yes"/>
      <point x="297" y="522"/>
      <point x="357" y="431"/>
      <point x="357" y="269" type="curve" smooth="yes"/>
    </contour>
    <contour>
      <point x="322" y="255" type="curve" smooth="yes"/>
      <point x="322" y="416"/>
      <point x="275" y="491"/>
      <point x="215" y="491" type="curve" smooth="yes"/>
      <point x="149" y="491"/>
      <point x="90" y="376"/>
      <point x="90" y="256" type="curve" smooth="yes"/>
      <point x="90" y="137"/>
      <point x="148" y="21"/>
      <point x="218" y="21" type="curve" smooth="yes"/>
      <point x="277" y="21"/>
      <point x="322" y="103"/>
    </contour>
  </outline>
</glyph>
<glyph name="r" format="1">
  <advance width="276"/>
  <unicode hex="0072"/>
  <outline>
    <contour>
      <point x="264" y="478" type="line"/>
      <point x="195" y="458"/>
      <point x="138" y="381"/>
      <point x="95" y="287" type="curve"/>
      <point x="95" y="0" type="line"/>
      <point x="60" y="0" type="line"/>
      <point x="60" y="501" type="line"/>
      <point x="95" y="521" type="line"/>
      <point x="95" y="339" type="line"/>
      <point x="100" y="339" type="line"/>
      <point x="153" y="440"/>
      <point x="205" y="507"/>
      <point x="264" y="521" type="curve"/>
    </contour>
  </outline>
</glyph>
<glyph name="t" format="1">
  <advance width="261"/>
  <unicode hex="0074"/>
  <outline>
    <contour>
      <point x="245" y="23" type="line"/>
      <point x="216" y="3"/>
      <point x="194" y="-7"/>
      <point x="166" y="-7" type="curve" smooth="yes"/>
      <point x="124" y="-7"/>
      <point x="90" y="17"/>
      <point x="90" y="80" type="curve" smooth="yes"/>
      <point x="90" y="479" type="line"/>
      <point x="15" y="479" type="line"/>
      <point x="15" y="507" type="line"/>
      <point x="90" y="507" type="line"/>
      <point x="90" y="683" type="line"/>
      <point x="125" y="732" type="line"/>
      <point x="125" y="507" type="line"/>
      <point x="225" y="507" type="line"/>
      <point x="225" y="479" type="line"/>
      <point x="125" y="479" type="line"/>
      <point x="125" y="84" type="line" smooth="yes"/>
      <point x="125" y="41"/>
      <point x="143" y="23"/>
      <point x="174" y="23" type="curve" smooth="yes"/>
      <point x="195" y="23"/>
      <point x="215" y="32"/>
      <point x="245" y="55" type="curve"/>
    </contour>
  </outline>
</glyph>
<glyph name="v" format="1">
  <advance width="342"/>
  <unicode hex="0076"/>
  <outline>
    <contour>
      <point x="319" y="512" type="line"/>
      <point x="190" y="-6" type="line"/>
      <point x="152" y="-6" type="line"/>
      <point x="23" y="512" type="line"/>
      <point x="58" y="512" type="line"/>
      <point x="172" y="37" type="line"/>
      <point x="286" y="512" type="line"/>
    </contour>
  </outline>
</glyph>
<glyph name="w" format="1">
  <advance width="576"/>
  <unicode hex="0077"/>
  <outline>
    <contour>
      <point x="551" y="512" type="line"/>
      <point x="423" y="-4" type="line"/>
      <point x="390" y="-4" type="line"/>
      <point x="288" y="454" type="line"/>
      <point x="186" y="-4" type="line"/>
      <point x="153" y="-4" type="line"/>
      <point x="25" y="512" type="line"/>
      <point x="60" y="512" type="line"/>
      <point x="171" y="44" type="line"/>
      <point x="272" y="512" type="line"/>
      <point x="306" y="512" type="line"/>
      <point x="408" y="44" type="line"/>
      <point x="518" y="512" type="line"/>
    </contour>
  </outline>
</glyph>
<glyph name="y" format="1">
  <advance width="342"/>
  <unicode hex="0079"/>
  <outline>
    <contour>
      <point x="319" y="512" type="line"/>
      <point x="166" y="-87" type="line" smooth="yes"/>
      <point x="147" y="-161"/>
      <point x="115" y="-190"/>
      <point x="65" y="-190" type="curve" smooth="yes"/>
      <point x="38" y="-190"/>
      <point x="24" y="-184"/>
      <point x="9" y="-176" type="curve"/>
      <point x="9" y="-139" type="line"/>
      <point x="26" y="-139" type="line"/>
      <point x="33" y="-153"/>
      <point x="44" y="-163"/>
      <point x="72" y="-163" type="curve" smooth="yes"/>
      <point x="100" y="-163"/>
      <point x="123" y="-140"/>
      <point x="136" y="-90" type="curve" smooth="yes"/>
      <point x="156" y="-15" type="line"/>
      <point x="23" y="512" type="line"/>
      <point x="58" y="512" type="line"/>
      <point x="172" y="37" type="line"/>
      <point x="286" y="512" type="line"/>
    </contour>
  </outline>
</glyph>
<glyph name="braceright" format="1">
  <advance width="286"/>
  <unicode hex="007D"/>
  <outline>
    <contour>
      <point x="266" y="305" type="line"/>
      <point x="207" y="305"/>
      <point x="163" y="274"/>
      <point x="163" y="203" type="curve" smooth="yes"/>
      <point x="163" y="162"/>
      <point x="178" y="90"/>
      <point x="178" y="43" type="curve" smooth="yes"/>
      <point x="178" y="-39"/>
      <point x="142" y="-80"/>
      <point x="67" y="-80" type="curve" smooth="yes"/>
      <point x="29" y="-80" type="line"/>
      <point x="29" y="-52" type="line"/>
      <point x="67" y="-52" type="line" smooth="yes"/>
      <point x="119" y="-52"/>
      <point x="142" y="-23"/>
      <point x="142" y="36" type="curve" smooth="yes"/>
      <point x="142" y="80"/>
      <point x="127" y="143"/>
      <point x="127" y="193" type="curve" smooth="yes"/>
      <point x="127" y="270"/>
      <point x="169" y="297"/>
      <point x="213" y="316" type="curve"/>
      <point x="213" y="324" type="line"/>
      <point x="169" y="343"/>
      <point x="127" y="370"/>
      <point x="127" y="447" type="curve" smooth="yes"/>
      <point x="127" y="497"/>
      <point x="142" y="560"/>
      <point x="142" y="604" type="curve" smooth="yes"/>
      <point x="142" y="663"/>
      <point x="119" y="692"/>
      <point x="67" y="692" type="curve" smooth="yes"/>
      <point x="29" y="692" type="line"/>
      <point x="29" y="720" type="line"/>
      <point x="67" y="720" type="line" smooth="yes"/>
      <point x="142" y="720"/>
      <point x="178" y="679"/>
      <point x="178" y="597" type="curve" smooth="yes"/>
      <point x="178" y="550"/>
      <point x="163" y="478"/>
      <point x="163" y="437" type="curve" smooth="yes"/>
      <point x="163" y="366"/>
      <point x="207" y="335"/>
      <point x="266" y="335" type="curve"/>
    </contour>
  </outline>
</glyph>
<glyph name="cent" format="1">
  <advance width="345"/>
  <unicode hex="00A2"/>
  <outline>
    <contour>
      <point x="310" y="115" type="line"/>
      <point x="290" y="44"/>
      <point x="247" y="-10"/>
      <point x="183" y="-10" type="curve" smooth="yes"/>
      <point x="164" y="-10"/>
      <point x="147" y="-6"/>
      <point x="131" y="2" type="curve"/>
      <point x="104" y="-95" type="line"/>
      <point x="76" y="-95" type="line"/>
      <point x="108" y="18" type="line"/>
      <point x="64" y="56"/>
      <point x="37" y="132"/>
      <point x="37" y="228" type="curve" smooth="yes"/>
      <point x="37" y="292" type="line" smooth="yes"/>
      <point x="37" y="431"/>
      <point x="96" y="522"/>
      <point x="179" y="522" type="curve" smooth="yes"/>
      <point x="205" y="522"/>
      <point x="228" y="515"/>
      <point x="246" y="502" type="curve"/>
      <point x="276" y="607" type="line"/>
      <point x="304" y="607" type="line"/>
      <point x="140" y="33" type="line"/>
      <point x="154" y="24"/>
      <point x="169" y="19"/>
      <point x="185" y="19" type="curve" smooth="yes"/>
      <point x="231" y="19"/>
      <point x="265" y="62"/>
      <point x="283" y="127" type="curve"/>
    </contour>
    <contour>
      <point x="237" y="470" type="line"/>
      <point x="221" y="484"/>
      <point x="202" y="493"/>
      <point x="177" y="493" type="curve" smooth="yes"/>
      <point x="115" y="493"/>
      <point x="72" y="413"/>
      <point x="72" y="294" type="curve" smooth="yes"/>
      <point x="72" y="229" type="line" smooth="yes"/>
      <point x="72" y="155"/>
      <point x="89" y="91"/>
      <point x="118" y="54" type="curve"/>
    </contour>
  </outline>
</glyph>
<glyph name="sterling" format="1">
  <advance width="435"/>
  <unicode hex="00A3"/>
  <outline>
    <contour>
      <point x="412" y="163" type="line"/>
      <point x="397" y="45"/>
      <point x="360" y="-6"/>
      <point x="287" y="-6" type="curve" smooth="yes"/>
      <point x="238" y="-6"/>
      <point x="192" y="21"/>
      <point x="144" y="65" type="curve"/>
      <point x="119" y="32"/>
      <point x="85" y="10"/>
      <point x="46" y="-6" type="curve"/>
      <point x="46" y="29" type="line"/>
      <point x="102" y="53"/>
      <point x="147" y="100"/>
      <point x="147" y="204" type="curve" smooth="yes"/>
      <point x="147" y="255"/>
      <point x="139" y="301"/>
      <point x="130" y="343" type="curve"/>
      <point x="37" y="343" type="line"/>
      <point x="37" y="372" type="line"/>
      <point x="123" y="372" type="line"/>
      <point x="106" y="436"/>
      <point x="88" y="494"/>
      <point x="88" y="558" type="curve" smooth="yes"/>
      <point x="88" y="664"/>
      <point x="148" y="732"/>
      <point x="238" y="732" type="curve" smooth="yes"/>
      <point x="315" y="732"/>
      <point x="357" y="688"/>
      <point x="388" y="626" type="curve"/>
      <point x="358" y="606" type="line"/>
      <point x="329" y="661"/>
      <point x="299" y="702"/>
      <point x="236" y="702" type="curve" smooth="yes"/>
      <point x="167" y="702"/>
      <point x="125" y="645"/>
      <point x="125" y="560" type="curve" smooth="yes"/>
      <point x="125" y="499"/>
      <point x="145" y="440"/>
      <point x="161" y="372" type="curve"/>
      <point x="312" y="372" type="line"/>
      <point x="312" y="343" type="line"/>
      <point x="168" y="343" type="line"/>
      <point x="177" y="301"/>
      <point x="184" y="256"/>
      <point x="184" y="206" type="curve" smooth="yes"/>
      <point x="184" y="161"/>
      <point x="176" y="124"/>
      <point x="161" y="94" type="curve"/>
      <point x="208" y="47"/>
      <point x="252" y="25"/>
      <point x="290" y="25" type="curve" smooth="yes"/>
      <point x="340" y="25"/>
      <point x="366" y="63"/>
      <point x="382" y="175" type="curve"/>
    </contour>
  </outline>
</glyph>
<glyph name="copyright" format="1">
  <advance width="659"/>
  <unicode hex="00A9"/>
  <outline>
    <contour>
      <point x="622" y="360" type="curve" smooth="yes"/>
      <point x="622" y="146"/>
      <point x="501" y="-12"/>
      <point x="330" y="-12" type="curve" smooth="yes"/>
      <point x="159" y="-12"/>
      <point x="38" y="146"/>
      <point x="38" y="360" type="curve" smooth="yes"/>
      <point x="38" y="574"/>
      <point x="159" y="732"/>
      <point x="330" y="732" type="curve" smooth="yes"/>
      <point x="501" y="732"/>
      <point x="622" y="574"/>
    </contour>
    <contour>
      <point x="594" y="360" type="curve" smooth="yes"/>
      <point x="594" y="561"/>
      <point x="487" y="708"/>
      <point x="330" y="708" type="curve" smooth="yes"/>
      <point x="172" y="708"/>
      <point x="66" y="561"/>
      <point x="66" y="360" type="curve" smooth="yes"/>
      <point x="66" y="159"/>
      <point x="172" y="12"/>
      <point x="330" y="12" type="curve" smooth="yes"/>
      <point x="487" y="12"/>
      <point x="594" y="159"/>
    </contour>
    <contour>
      <point x="435" y="286" type="line"/>
      <point x="418" y="208"/>
      <point x="388" y="160"/>
      <point x="327" y="160" type="curve" smooth="yes"/>
      <point x="258" y="160"/>
      <point x="216" y="233"/>
      <point x="216" y="344" type="curve" smooth="yes"/>
      <point x="216" y="384" type="line" smooth="yes"/>
      <point x="216" y="496"/>
      <point x="259" y="569"/>
      <point x="327" y="569" type="curve" smooth="yes"/>
      <point x="384" y="569"/>
      <point x="415" y="528"/>
      <point x="432" y="455" type="curve"/>
      <point x="400" y="444" type="line"/>
      <point x="386" y="506"/>
      <point x="367" y="540"/>
      <point x="327" y="540" type="curve" smooth="yes"/>
      <point x="275" y="540"/>
      <point x="251" y="472"/>
      <point x="251" y="385" type="curve" smooth="yes"/>
      <point x="251" y="346" type="line" smooth="yes"/>
      <point x="251" y="258"/>
      <point x="277" y="190"/>
      <point x="328" y="190" type="curve" smooth="yes"/>
      <point x="369" y="190"/>
      <point x="388" y="229"/>
      <point x="403" y="296" type="curve"/>
    </contour>
  </outline>
</glyph>
<glyph name="guillemotleft" format="1">
  <advance width="340"/>
  <unicode hex="00AB"/>
  <outline>
    <contour>
      <point x="309" y="80" type="line"/>
      <point x="282" y="80" type="line"/>
      <point x="160" y="256" type="line"/>
      <point x="282" y="432" type="line"/>
      <point x="309" y="432" type="line"/>
      <point x="207" y="256" type="line"/>
    </contour>
    <contour>
      <point x="169" y="80" type="line"/>
      <point x="142" y="80" type="line"/>
      <point x="20" y="256" type="line"/>
      <point x="142" y="432" type="line"/>
      <point x="169" y="432" type="line"/>
      <point x="67" y="256" type="line"/>
    </contour>
  </outline>
</glyph>
<glyph name="degree" format="1">
  <advance width="314"/>
  <unicode hex="00B0"/>
  <outline>
    <contour>
      <point x="271" y="612" type="curve" smooth="yes"/>
      <point x="271" y="547"/>
      <point x="222" y="500"/>
      <point x="157" y="500" type="curve" smooth="yes"/>
      <point x="92" y="500"/>
      <point x="43" y="547"/>
      <point x="43" y="612" type="curve" smooth="yes"/>
      <point x="43" y="677"/>
      <point x="92" y="724"/>
      <point x="157" y="724" type="curve" smooth="yes"/>
      <point x="222" y="724"/>
      <point x="271" y="677"/>
    </contour>
    <contour>
      <point x="239" y="612" type="curve" smooth="yes"/>
      <point x="239" y="661"/>
      <point x="204" y="696"/>
      <point x="157" y="696" type="curve" smooth="yes"/>
      <point x="110" y="696"/>
      <point x="75" y="661"/>
      <point x="75" y="612" type="curve" smooth="yes"/>
      <point x="75" y="563"/>
      <point x="110" y="528"/>
      <point x="157" y="528" type="curve" smooth="yes"/>
      <point x="204" y="528"/>
      <point x="239" y="563"/>
    </contour>
  </outline>
</glyph>
<glyph name="acute" format="1">
  <advance width="390"/>
  <unicode hex="00B4"/>
  <outline>
    <contour>
      <point x="266" y="695" type="line"/>
      <point x="161" y="577" type="line"/>
      <point x="139" y="577" type="line"/>
      <point x="213" y="695" type="line"/>
    </contour>
  </outline>
</glyph>
<glyph name="paragraph" format="1">
  <advance width="430"/>
  <unicode hex="00B6"/>
  <outline>
    <contour>
      <point x="360" y="0" type="line"/>
      <point x="325" y="0" type="line"/>
      <point x="325" y="690" type="line"/>
      <point x="237" y="690" type="line"/>
      <point x="237" y="0" type="line"/>
      <point x="202" y="0" type="line"/>
      <point x="202" y="379" type="line"/>
      <point x="111" y="390"/>
      <point x="31" y="446"/>
      <point x="31" y="554" type="curve" smooth="yes"/>
      <point x="31" y="665"/>
      <point x="108" y="720"/>
      <point x="214" y="720" type="curve" smooth="yes"/>
      <point x="360" y="720" type="line"/>
    </contour>
  </outline>
</glyph>
<glyph name="periodcentered" format="1">
  <advance width="140"/>
  <unicode hex="00B7"/>
  <outline>
    <contour>
      <point x="102" y="278" type="curve" smooth="yes"/>
      <point x="102" y="259"/>
      <point x="89" y="246"/>
      <point x="70" y="246" type="curve" smooth="yes"/>
      <point x="51" y="246"/>
      <point x="38" y="259"/>
      <point x="38" y="278" type="curve" smooth="yes"/>
      <point x="38" y="297"/>
      <point x="51" y="310"/>
      <point x="70" y="310" type="curve" smooth="yes"/>
      <point x="89" y="310"/>
      <point x="102" y="297"/>
    </contour>
  </outline>
</glyph>
<glyph name="cedilla" format="1">
  <advance width="390"/>
  <unicode hex="00B8"/>
  <outline>
    <contour>
      <point x="284" y="-82" type="curve" smooth="yes"/>
      <point x="284" y="-129"/>
      <point x="226" y="-152"/>
      <point x="131" y="-150" type="curve"/>
      <point x="131" y="-133" type="line"/>
      <point x="217" y="-131"/>
      <point x="249" y="-113"/>
      <point x="249" y="-86" type="curve" smooth="yes"/>
      <point x="249" y="-71"/>
      <point x="238" y="-61"/>
      <point x="218" y="-61" type="curve" smooth="yes"/>
      <point x="201" y="-61"/>
      <point x="188" y="-64"/>
      <point x="175" y="-71" type="curve"/>
      <point x="160" y="-61" type="line"/>
      <point x="194" y="0" type="line"/>
      <point x="220" y="0" type="line"/>
      <point x="195" y="-44" type="line"/>
      <point x="207" y="-39"/>
      <point x="217" y="-36"/>
      <point x="231" y="-36" type="curve" smooth="yes"/>
      <point x="264" y="-36"/>
      <point x="284" y="-52"/>
    </contour>
  </outline>
</glyph>
<glyph name="ordmasculine" format="1">
  <advance width="278"/>
  <unicode hex="00BA"/>
  <outline>
    <contour>
      <point x="239" y="592" type="line" smooth="yes"/>
      <point x="239" y="514"/>
      <point x="198" y="459"/>
      <point x="139" y="459" type="curve" smooth="yes"/>
      <point x="80" y="459"/>
      <point x="39" y="514"/>
      <point x="39" y="592" type="curve"/>
      <point x="38" y="593"/>
      <point x="38" y="593"/>
      <point x="39" y="594" type="curve"/>
      <point x="39" y="672"/>
      <point x="80" y="727"/>
      <point x="139" y="727" type="curve" smooth="yes"/>
      <point x="198" y="727"/>
      <point x="239" y="672"/>
      <point x="239" y="594" type="curve" smooth="yes"/>
    </contour>
    <contour>
      <point x="234" y="378" type="line"/>
      <point x="44" y="378" type="line"/>
      <point x="44" y="403" type="line"/>
      <point x="234" y="403" type="line"/>
    </contour>
    <contour>
      <point x="209" y="591" type="curve" smooth="yes"/>
      <point x="209" y="593" type="line" smooth="yes"/>
      <point x="209" y="654"/>
      <point x="183" y="701"/>
      <point x="139" y="701" type="curve" smooth="yes"/>
      <point x="95" y="701"/>
      <point x="69" y="656"/>
      <point x="69" y="595" type="curve"/>
      <point x="68" y="594"/>
      <point x="68" y="594"/>
      <point x="69" y="593" type="curve"/>
      <point x="69" y="532"/>
      <point x="95" y="485"/>
      <point x="139" y="485" type="curve" smooth="yes"/>
      <point x="183" y="485"/>
      <point x="209" y="530"/>
    </contour>
  </outline>
</glyph>
<glyph name="questiondown" format="1">
  <advance width="336"/>
  <unicode hex="00BF"/>
  <outline>
    <contour>
      <point x="213" y="695" type="curve" smooth="yes"/>
      <point x="213" y="676"/>
      <point x="200" y="663"/>
      <point x="181" y="663" type="curve" smooth="yes"/>
      <point x="162" y="663"/>
      <point x="149" y="676"/>
      <point x="149" y="695" type="curve" smooth="yes"/>
      <point x="149" y="714"/>
      <point x="162" y="727"/>
      <point x="181" y="727" type="curve" smooth="yes"/>
      <point x="200" y="727"/>
      <point x="213" y="714"/>
    </contour>
    <contour>
      <point x="314" y="124" type="line"/>
      <point x="292" y="38"/>
      <point x="244" y="-12"/>
      <point x="169" y="-12" type="curve" smooth="yes"/>
      <point x="90" y="-12"/>
      <point x="39" y="52"/>
      <point x="39" y="144" type="curve" smooth="yes"/>
      <point x="39" y="223"/>
      <point x="61" y="259"/>
      <point x="116" y="334" type="curve" smooth="yes"/>
      <point x="159" y="392"/>
      <point x="170" y="427"/>
      <point x="170" y="542" type="curve"/>
      <point x="192" y="542" type="line"/>
      <point x="193" y="413"/>
      <point x="185" y="373"/>
      <point x="134" y="305" type="curve" smooth="yes"/>
      <point x="92" y="250"/>
      <point x="75" y="206"/>
      <point x="75" y="148" type="curve" smooth="yes"/>
      <point x="75" y="74"/>
      <point x="112" y="21"/>
      <point x="172" y="21" type="curve" smooth="yes"/>
      <point x="229" y="21"/>
      <point x="263" y="62"/>
      <point x="285" y="136" type="curve"/>
    </contour>
  </outline>
</glyph>
<glyph name="Eth" format="1">
  <advance width="498"/>
  <unicode hex="00D0"/>
  <outline>
    <contour>
      <point x="452" y="324" type="line" smooth="yes"/>
      <point x="452" y="121"/>
      <point x="364" y="0"/>
      <point x="204" y="0" type="curve" smooth="yes"/>
      <point x="97" y="0" type="line"/>
      <point x="97" y="363" type="line"/>
      <point x="21" y="363" type="line"/>
      <point x="21" y="393" type="line"/>
      <point x="97" y="393" type="line"/>
      <point x="97" y="720" type="line"/>
      <point x="208" y="720" type="line" smooth="yes"/>
      <point x="368" y="720"/>
      <point x="452" y="598"/>
      <point x="452" y="398" type="curve" smooth="yes"/>
    </contour>
    <contour>
      <point x="414" y="321" type="curve" smooth="yes"/>
      <point x="414" y="397" type="line" smooth="yes"/>
      <point x="414" y="582"/>
      <point x="341" y="690"/>
      <point x="206" y="690" type="curve" smooth="yes"/>
      <point x="135" y="690" type="line"/>
      <point x="135" y="393" type="line"/>
      <point x="251" y="393" type="line"/>
      <point x="251" y="363" type="line"/>
      <point x="135" y="363" type="line"/>
      <point x="135" y="30" type="line"/>
      <point x="210" y="30" type="line" smooth="yes"/>
      <point x="339" y="30"/>
      <point x="414" y="138"/>
    </contour>
  </outline>
</glyph>
<glyph name="germandbls" format="1">
  <advance width="443"/>
  <unicode hex="00DF"/>
  <outline>
    <contour>
      <point x="408" y="177" type="curve" smooth="yes"/>
      <point x="408" y="58"/>
      <point x="346" y="-10"/>
      <point x="272" y="-10" type="curve" smooth="yes"/>
      <point x="214" y="-10"/>
      <point x="183" y="17"/>
      <point x="156" y="53" type="curve"/>
      <point x="178" y="73" type="line"/>
      <point x="203" y="40"/>
      <point x="226" y="16"/>
      <point x="273" y="16" type="curve" smooth="yes"/>
      <point x="325" y="16"/>
      <point x="373" y="72"/>
      <point x="373" y="174" type="curve" smooth="yes"/>
      <point x="373" y="307"/>
      <point x="303" y="391"/>
      <point x="181" y="401" type="curve"/>
      <point x="181" y="425" type="line"/>
      <point x="276" y="428"/>
      <point x="319" y="504"/>
      <point x="319" y="589" type="curve" smooth="yes"/>
      <point x="319" y="667"/>
      <point x="281" y="733"/>
      <point x="209" y="733" type="curve" smooth="yes"/>
      <point x="136" y="733"/>
      <point x="95" y="677"/>
      <point x="95" y="569" type="curve" smooth="yes"/>
      <point x="95" y="0" type="line"/>
      <point x="60" y="0" type="line"/>
      <point x="60" y="565" type="line" smooth="yes"/>
      <point x="60" y="691"/>
      <point x="117" y="759"/>
      <point x="210" y="759" type="curve" smooth="yes"/>
      <point x="299" y="759"/>
      <point x="354" y="686"/>
      <point x="354" y="592" type="curve" smooth="yes"/>
      <point x="354" y="504"/>
      <point x="308" y="441"/>
      <point x="246" y="417" type="curve"/>
      <point x="246" y="411" type="line"/>
      <point x="330" y="387"/>
      <point x="408" y="312"/>
    </contour>
  </outline>
</glyph>
<glyph name="ccedilla" format="1">
  <advance width="338"/>
  <unicode hex="00E7"/>
  <outline>
    <contour>
      <point x="310" y="115" type="line"/>
      <point x="290" y="45"/>
      <point x="249" y="-8"/>
      <point x="186" y="-10" type="curve"/>
      <point x="167" y="-44" type="line"/>
      <point x="179" y="-39"/>
      <point x="189" y="-36"/>
      <point x="203" y="-36" type="curve" smooth="yes"/>
      <point x="236" y="-36"/>
      <point x="256" y="-52"/>
      <point x="256" y="-82" type="curve" smooth="yes"/>
      <point x="256" y="-129"/>
      <point x="198" y="-152"/>
      <point x="103" y="-150" type="curve"/>
      <point x="103" y="-133" type="line"/>
      <point x="189" y="-131"/>
      <point x="221" y="-113"/>
      <point x="221" y="-86" type="curve" smooth="yes"/>
      <point x="221" y="-71"/>
      <point x="210" y="-61"/>
      <point x="190" y="-61" type="curve" smooth="yes"/>
      <point x="173" y="-61"/>
      <point x="160" y="-64"/>
      <point x="147" y="-71" type="curve"/>
      <point x="132" y="-61" type="line"/>
      <point x="162" y="-8" type="line"/>
      <point x="85" y="6"/>
      <point x="37" y="99"/>
      <point x="37" y="228" type="curve" smooth="yes"/>
      <point x="37" y="282" type="line" smooth="yes"/>
      <point x="37" y="421"/>
      <point x="95" y="522"/>
      <point x="181" y="522" type="curve" smooth="yes"/>
      <point x="252" y="522"/>
      <point x="288" y="466"/>
      <point x="308" y="394" type="curve"/>
      <point x="278" y="383" type="line"/>
      <point x="259" y="445"/>
      <point x="234" y="493"/>
      <point x="179" y="493" type="curve" smooth="yes"/>
      <point x="114" y="493"/>
      <point x="72" y="403"/>
      <point x="72" y="284" type="curve" smooth="yes"/>
      <point x="72" y="229" type="line" smooth="yes"/>
      <point x="72" y="110"/>
      <point x="115" y="19"/>
      <point x="185" y="19" type="curve" smooth="yes"/>
      <point x="231" y="19"/>
      <point x="265" y="62"/>
      <point x="283" y="127" type="curve"/>
    </contour>
  </outline>
</glyph>
<glyph name="divide" format="1">
  <advance width="470"/>
  <unicode hex="00F7"/>
  <outline>
    <contour>
      <point x="268" y="510" type="curve" smooth="yes"/>
      <point x="268" y="491"/>
      <point x="255" y="478"/>
      <point x="235" y="478" type="curve" smooth="yes"/>
      <point x="216" y="478"/>
      <point x="203" y="491"/>
      <point x="203" y="510" type="curve" smooth="yes"/>
      <point x="203" y="529"/>
      <point x="216" y="542"/>
      <point x="235" y="542" type="curve" smooth="yes"/>
      <point x="255" y="542"/>
      <point x="268" y="529"/>
    </contour>
    <contour>
      <point x="432" y="338" type="line"/>
      <point x="38" y="338" type="line"/>
      <point x="38" y="372" type="line"/>
      <point x="432" y="372" type="line"/>
    </contour>
    <contour>
      <point x="268" y="200" type="curve" smooth="yes"/>
      <point x="268" y="181"/>
      <point x="255" y="168"/>
      <point x="235" y="168" type="curve" smooth="yes"/>
      <point x="216" y="168"/>
      <point x="203" y="181"/>
      <point x="203" y="200" type="curve" smooth="yes"/>
      <point x="203" y="219"/>
      <point x="216" y="233"/>
      <point x="235" y="233" type="curve" smooth="yes"/>
      <point x="255" y="233"/>
      <point x="268" y="219"/>
    </contour>
  </outline>
</glyph>
<glyph name="dotlessi" format="1">
  <advance width="169"/>
  <unicode hex="0131"/>
  <outline>
    <contour>
      <point x="102" y="0" type="line"/>
      <point x="67" y="0" type="line"/>
      <point x="67" y="512" type="line"/>
      <point x="102" y="512" type="line"/>
    </contour>
  </outline>
</glyph>
<glyph name="florin" format="1">
  <advance width="330"/>
  <unicode hex="0192"/>
  <outline>
    <contour>
      <point x="325" y="713" type="curve"/>
      <point x="321" y="681" type="line"/>
      <point x="300" y="692"/>
      <point x="283" y="695"/>
      <point x="260" y="695" type="curve" smooth="yes"/>
      <point x="223" y="695"/>
      <point x="195" y="670"/>
      <point x="187" y="610" type="curve" smooth="yes"/>
      <point x="165" y="453" type="line"/>
      <point x="267" y="453" type="line"/>
      <point x="262" y="423" type="line"/>
      <point x="161" y="423" type="line"/>
      <point x="90" y="-96" type="line" smooth="yes"/>
      <point x="80" y="-169"/>
      <point x="44" y="-190"/>
      <point x="1" y="-190" type="curve" smooth="yes"/>
      <point x="-16" y="-190"/>
      <point x="-35" y="-185"/>
      <point x="-47" y="-180" type="curve"/>
      <point x="-43" y="-149" type="line"/>
      <point x="-29" y="-155"/>
      <point x="-11" y="-159"/>
      <point x="5" y="-159" type="curve" smooth="yes"/>
      <point x="30" y="-159"/>
      <point x="48" y="-141"/>
      <point x="55" y="-92" type="curve" smooth="yes"/>
      <point x="126" y="423" type="line"/>
      <point x="43" y="423" type="line"/>
      <point x="48" y="453" type="line"/>
      <point x="130" y="453" type="line"/>
      <point x="152" y="610" type="line" smooth="yes"/>
      <point x="164" y="695"/>
      <point x="207" y="726"/>
      <point x="265" y="726" type="curve" smooth="yes"/>
      <point x="288" y="726"/>
      <point x="307" y="721"/>
    </contour>
  </outline>
</glyph>
<glyph name="dotaccent" format="1">
  <advance width="390"/>
  <unicode hex="02D9"/>
  <outline>
    <contour>
      <point x="222" y="577" type="line"/>
      <point x="168" y="577" type="line"/>
      <point x="168" y="640" type="line"/>
      <point x="222" y="640" type="line"/>
    </contour>
  </outline>
</glyph>
<glyph name="ring" format="1">
  <advance width="390"/>
  <unicode hex="02DA"/>
  <outline>
    <contour>
      <point x="260" y="635" type="curve" smooth="yes"/>
      <point x="260" y="599"/>
      <point x="231" y="570"/>
      <point x="195" y="570" type="curve" smooth="yes"/>
      <point x="159" y="570"/>
      <point x="130" y="599"/>
      <point x="130" y="635" type="curve" smooth="yes"/>
      <point x="130" y="671"/>
      <point x="159" y="700"/>
      <point x="195" y="700" type="curve" smooth="yes"/>
      <point x="231" y="700"/>
      <point x="260" y="671"/>
    </contour>
    <contour>
      <point x="238" y="636" type="curve" smooth="yes"/>
      <point x="238" y="661"/>
      <point x="220" y="681"/>
      <point x="195" y="681" type="curve" smooth="yes"/>
      <point x="170" y="681"/>
      <point x="152" y="661"/>
      <point x="152" y="636" type="curve" smooth="yes"/>
      <point x="152" y="611"/>
      <point x="170" y="589"/>
      <point x="195" y="589" type="curve" smooth="yes"/>
      <point x="220" y="589"/>
      <point x="238" y="611"/>
    </contour>
  </outline>
</glyph>
<glyph name="hungarumlaut" format="1">
  <advance width="390"/>
  <unicode hex="02DD"/>
  <outline>
    <contour>
      <point x="324" y="695" type="line"/>
      <point x="220" y="577" type="line"/>
      <point x="197" y="577" type="line"/>
      <point x="271" y="695" type="line"/>
    </contour>
    <contour>
      <point x="197" y="695" type="line"/>
      <point x="92" y="577" type="line"/>
      <point x="70" y="577" type="line"/>
      <point x="144" y="695" type="line"/>
    </contour>
  </outline>
</glyph>
<glyph name="quotedblbase" format="1">
  <advance width="250"/>
  <unicode hex="201E"/>
  <outline>
    <contour>
      <point x="210" y="75" type="line"/>
      <point x="152" y="-108" type="line"/>
      <point x="135" y="-108" type="line"/>
      <point x="168" y="75" type="line"/>
    </contour>
    <contour>
      <point x="100" y="75" type="line"/>
      <point x="42" y="-108" type="line"/>
      <point x="25" y="-108" type="line"/>
      <point x="58" y="75" type="line"/>
    </contour>
  </outline>
</glyph>
<glyph name="dagger" format="1">
  <advance width="328"/>
  <unicode hex="2020"/>
  <outline>
    <contour>
      <point x="301" y="477" type="line"/>
      <point x="174" y="485" type="line"/>
      <point x="185" y="347" type="line"/>
      <point x="173" y="0" type="line"/>
      <point x="155" y="0" type="line"/>
      <point x="143" y="347" type="line"/>
      <point x="154" y="485" type="line"/>
      <point x="27" y="477" type="line"/>
      <point x="27" y="512" type="line"/>
      <point x="154" y="503" type="line"/>
      <point x="143" y="720" type="line"/>
      <point x="185" y="720" type="line"/>
      <point x="174" y="503" type="line"/>
      <point x="301" y="512" type="line"/>
    </contour>
  </outline>
</glyph>
<glyph name="guilsinglright" format="1">
  <advance width="190"/>
  <unicode hex="203A"/>
  <outline>
    <contour>
      <point x="180" y="256" type="line"/>
      <point x="58" y="80" type="line"/>
      <point x="31" y="80" type="line"/>
      <point x="133" y="256" type="line"/>
      <point x="31" y="432" type="line"/>
      <point x="58" y="432" type="line"/>
    </contour>
  </outline>
</glyph>
<glyph name="minus" format="1">
  <advance width="470"/>
  <unicode hex="2212"/>
  <outline>
    <contour>
      <point x="432" y="338" type="line"/>
      <point x="38" y="338" type="line"/>
      <point x="38" y="372" type="line"/>
      <point x="432" y="372" type="line"/>
    </contour>
  </outline>
</glyph>
<glyph name="apple" format="1">
  <advance width="500"/>
  <unicode hex="F8FF"/>
  <outline>
    <contour>
      <point x="454" y="160" type="line"/>
      <point x="441" y="122" type="line"/>
      <point x="257" y="198" type="line"/>
      <point x="271" y="0" type="line"/>
      <point x="229" y="0" type="line"/>
      <point x="243" y="198" type="line"/>
      <point x="59" y="122" type="line"/>
      <point x="46" y="160" type="line"/>
      <point x="235" y="210" type="line"/>
      <point x="109" y="358" type="line"/>
      <point x="109" y="362" type="line"/>
      <point x="235" y="510" type="line"/>
      <point x="46" y="560" type="line"/>
      <point x="59" y="598" type="line"/>
      <point x="243" y="522" type="line"/>
      <point x="229" y="720" type="line"/>
      <point x="271" y="720" type="line"/>
      <point x="257" y="522" type="line"/>
      <point x="441" y="598" type="line"/>
      <point x="454" y="560" type="line"/>
      <point x="265" y="510" type="line"/>
      <point x="391" y="362" type="line"/>
      <point x="391" y="358" type="line"/>
      <point x="265" y="210" type="line"/>
    </contour>
    <contour>
      <point x="348" y="360" type="line"/>
      <point x="250" y="503" type="line"/>
      <point x="152" y="360" type="line"/>
      <point x="250" y="217" type="line"/>
    </contour>
  </outline>
</glyph>
<glyph name="fl" format="1">
  <advance width="405"/>
  <unicode hex="FB02"/>
  <outline>
    <contour>
      <point x="338" y="0" type="line"/>
      <point x="303" y="0" type="line"/>
      <point x="303" y="742" type="line"/>
      <point x="338" y="762" type="line"/>
    </contour>
    <contour>
      <point x="252" y="711" type="line"/>
      <point x="234" y="723"/>
      <point x="218" y="730"/>
      <point x="192" y="730" type="curve" smooth="yes"/>
      <point x="157" y="730"/>
      <point x="132" y="706"/>
      <point x="132" y="650" type="curve" smooth="yes"/>
      <point x="132" y="507" type="line"/>
      <point x="230" y="507" type="line"/>
      <point x="230" y="479" type="line"/>
      <point x="132" y="479" type="line"/>
      <point x="132" y="0" type="line"/>
      <point x="97" y="0" type="line"/>
      <point x="97" y="479" type="line"/>
      <point x="13" y="479" type="line"/>
      <point x="13" y="507" type="line"/>
      <point x="97" y="507" type="line"/>
      <point x="97" y="649" type="line" smooth="yes"/>
      <point x="97" y="724"/>
      <point x="136" y="759"/>
      <point x="189" y="759" type="curve" smooth="yes"/>
      <point x="220" y="759"/>
      <point x="235" y="755"/>
      <point x="252" y="747" type="curve"/>
    </contour>
  </outline>
</glyph>
<glyph name="I.salt" format="1">
  <advance width="196"/>
  <outline>
    <contour>
      <point x="117" y="0" type="line"/>
      <point x="79" y="0" type="line"/>
      <point x="79" y="720" type="line"/>
      <point x="117" y="720" type="line"/>
    </contour>
  </outline>
</glyph>
